<?xml version="1.0" encoding="UTF-8" standalone="no"?>
<svg
   xml:space="preserve"
   fill-rule="evenodd"
   clip-rule="evenodd"
   image-rendering="optimizeQuality"
   shape-rendering="geometricPrecision"
   text-rendering="geometricPrecision"
   viewBox="0 0 9034 2162"
   version="1.1"
   id="svg1"
   sodipodi:docname="logo.svg"
   inkscape:version="1.4.2 (f4327f4, 2025-05-13)"
   xmlns:inkscape="http://www.inkscape.org/namespaces/inkscape"
   xmlns:sodipodi="http://sodipodi.sourceforge.net/DTD/sodipodi-0.dtd"
   xmlns="http://www.w3.org/2000/svg"
   xmlns:svg="http://www.w3.org/2000/svg"><defs
   id="defs1" /><sodipodi:namedview
   id="namedview1"
   pagecolor="#ffffff"
   bordercolor="#000000"
   borderopacity="0.25"
   inkscape:showpageshadow="2"
   inkscape:pageopacity="0.0"
   inkscape:pagecheckerboard="0"
   inkscape:deskcolor="#d1d1d1"
   inkscape:zoom="0.14058003"
   inkscape:cx="882.05984"
   inkscape:cy="1081.2346"
   inkscape:window-width="1368"
   inkscape:window-height="850"
   inkscape:window-x="-6"
   inkscape:window-y="-6"
   inkscape:window-maximized="1"
   inkscape:current-layer="svg1" />

  <rect
   width="2162.2"
   height="2162.2"
   fill="var(--md-sys-color-on-secondary-container)"
   rx="180.9"
   ry="180.9"
   id="rect1"
   style="fill:#064e3b;fill-opacity:1"
   inkscape:export-filename="rect2.svg"
   inkscape:export-xdpi="96"
   inkscape:export-ydpi="96" />
  <path
   d="M0 1568v228c33 54 173 476 556 262 180-100 329-337 460-479 199-216 473-599 819-585 159 7 232 101 327 166V845c-190-94-301-198-633 2-253 153-553 539-688 665-95 90-378 524-638 399-306-147 14-643 44-823-150 77-160 323-247 480zM1293 459l-256-138-111 240 12 10 226 124 102-167 263 140c41-73 91-147 109-236-77-58-174-114-252-143l-93 170z"
   style="fill: white;"
   id="path1" />
  <text
   x="2755"
   y="1479"
   fill="var(--md-sys-color-on-secondary-container)"
   font-family="Cinzel"
   font-size="1096.4"
   font-weight="700"
   id="text1">TARJUMAN</text>
</svg>
